<svg width="168" height="42" viewBox="0 0 168 42" fill="none" xmlns="http://www.w3.org/2000/svg">
<path d="M25.7492 0.912007C25.8134 0.416926 25.3927 -0.00492206 24.899 0.0594685L8.4137 3.49156C7.78939 3.57299 7.52993 4.33751 7.97511 4.78391L11.2686 5.78109C11.7776 6.10901 11.8543 6.82459 11.4265 7.25358L1.67174 16.5413C-0.439245 18.6581 -0.439245 22.0901 1.67174 24.2069C3.78272 26.3237 7.20532 26.3237 9.3163 24.2069L18.5792 14.4283C19.0071 13.9991 19.7211 14.0765 20.0479 14.5873L21.0336 17.8785C21.4789 18.3249 22.2413 18.0648 22.3224 17.4386L25.7492 0.912007Z" fill="#0C84E8"/>
<path d="M2.50584 40.3594C0.394862 38.2428 0.394862 34.8107 2.50584 32.6938L11.8363 23.335C13.9472 21.2182 17.3698 21.2182 19.4809 23.335C21.5918 25.4518 21.5918 28.8838 19.4809 31.0006L10.1504 40.3594C8.03941 42.4763 4.61683 42.4763 2.50584 40.3594Z" fill="#0C8DF8"/>
<path d="M0.811896 17.6492C-0.680793 20.2417 0.205029 23.5568 2.79046 25.0537L11.4345 29.4372L11.452 29.4474C13.4308 30.6027 14.4072 32.8262 14.0739 34.9683C13.8698 36.2803 13.015 37.3912 12.1134 38.3636L20.1073 30.3436C20.5786 29.9477 20.99 29.4636 21.3153 28.8988C22.808 26.3061 22.9049 23.9738 20.3195 22.4771L10.6927 17.1106L10.6752 17.1005C8.69635 15.9451 7.72 13.7217 8.05327 11.5795C8.25736 10.2676 9.55374 9.18259 10.4554 8.21023L2.01982 16.2042C1.54854 16.6002 1.13717 17.0842 0.811896 17.6492Z" fill="#0670C9"/>
<path d="M44.1039 32.3811C42.1868 32.3811 40.3737 32.1386 38.6645 31.6535C36.9784 31.1685 35.5694 30.5102 34.4376 29.6787L35.9967 25.4519C37.0823 26.2141 38.318 26.8146 39.7039 27.2535C41.1128 27.6923 42.5795 27.9118 44.1039 27.9118C45.7669 27.9118 46.9564 27.6577 47.6725 27.1495C48.4116 26.6183 48.7811 25.96 48.7811 25.1747C48.7811 24.5049 48.5271 23.9736 48.0189 23.581C47.5108 23.1883 46.6215 22.8534 45.3512 22.5763L41.4362 21.7447C37.0707 20.8208 34.888 18.5573 34.888 14.9541C34.888 13.4066 35.3038 12.0554 36.1353 10.9005C36.9668 9.72253 38.1217 8.81018 39.5999 8.16346C41.1012 7.51673 42.8336 7.19337 44.7968 7.19337C46.4829 7.19337 48.0651 7.43589 49.5434 7.92093C51.0216 8.40598 52.2458 9.08735 53.2158 9.96506L51.6568 13.9147C49.7628 12.4134 47.4646 11.6627 44.7622 11.6627C43.307 11.6627 42.1753 11.9514 41.3669 12.5289C40.5816 13.0832 40.1889 13.8108 40.1889 14.7116C40.1889 15.3814 40.4314 15.9242 40.9165 16.3399C41.4015 16.7557 42.2446 17.0906 43.4456 17.3447L47.3606 18.1762C51.8415 19.1463 54.082 21.3405 54.082 24.759C54.082 26.2834 53.6662 27.623 52.8347 28.7779C52.0263 29.9097 50.8715 30.7989 49.3701 31.4457C47.8919 32.0693 46.1365 32.3811 44.1039 32.3811ZM65.2307 32.3811C60.4496 32.3811 58.059 30.0598 58.059 25.4172V18.9038H54.8369V14.9887H58.059V9.9997H63.2906V14.9887H68.3143V18.9038H63.2906V25.2094C63.2906 26.1794 63.51 26.907 63.9488 27.3921C64.4108 27.8771 65.1384 28.1196 66.1315 28.1196C66.4318 28.1196 66.7436 28.085 67.067 28.0157C67.4135 27.9464 67.783 27.854 68.1757 27.7385L68.9379 31.5496C68.4528 31.8037 67.8754 32 67.2056 32.1386C66.5358 32.3003 65.8775 32.3811 65.2307 32.3811ZM78.8957 32.3811C77.071 32.3811 75.4773 32.0231 74.1145 31.3071C72.7749 30.568 71.7355 29.5401 70.9964 28.2236C70.2572 26.8839 69.8877 25.3017 69.8877 23.4771C69.8877 21.6755 70.2572 20.1164 70.9964 18.7998C71.7355 17.4602 72.7749 16.4323 74.1145 15.7163C75.4773 15.0003 77.071 14.6423 78.8957 14.6423C80.7204 14.6423 82.3025 15.0003 83.6422 15.7163C85.0049 16.4323 86.0559 17.4602 86.795 18.7998C87.5572 20.1164 87.9383 21.6755 87.9383 23.4771C87.9383 25.3017 87.5572 26.8839 86.795 28.2236C86.0559 29.5401 85.0049 30.568 83.6422 31.3071C82.3025 32.0231 80.7204 32.3811 78.8957 32.3811ZM78.8957 28.4661C80.0043 28.4661 80.9051 28.0619 81.5981 27.2535C82.3141 26.4451 82.6721 25.1863 82.6721 23.4771C82.6721 21.7909 82.3141 20.5552 81.5981 19.7699C80.9051 18.9615 80.0043 18.5573 78.8957 18.5573C77.787 18.5573 76.8862 18.9615 76.1933 19.7699C75.5003 20.5552 75.1539 21.7909 75.1539 23.4771C75.1539 25.1863 75.5003 26.4451 76.1933 27.2535C76.8862 28.0619 77.787 28.4661 78.8957 28.4661ZM99.4016 32.3811C97.5538 32.3811 95.937 32.0231 94.5511 31.3071C93.1884 30.568 92.1374 29.5286 91.3983 28.1889C90.6592 26.8493 90.2896 25.2671 90.2896 23.4424C90.2896 21.6177 90.6592 20.0471 91.3983 18.7305C92.1374 17.414 93.1884 16.4092 94.5511 15.7163C95.937 15.0003 97.5538 14.6423 99.4016 14.6423C100.487 14.6423 101.584 14.804 102.693 15.1273C103.802 15.4507 104.702 15.9126 105.395 16.5132L103.94 20.1164C103.363 19.6544 102.716 19.2964 102 19.0423C101.284 18.7652 100.591 18.6266 99.9213 18.6266C98.5585 18.6266 97.496 19.0539 96.7338 19.9085C95.9947 20.74 95.6252 21.9295 95.6252 23.4771C95.6252 25.0015 95.9947 26.2025 96.7338 27.0802C97.496 27.9349 98.5585 28.3622 99.9213 28.3622C100.568 28.3622 101.249 28.2351 101.965 27.981C102.705 27.727 103.363 27.3574 103.94 26.8724L105.395 30.4756C104.702 31.0761 103.802 31.5496 102.693 31.8961C101.584 32.2194 100.487 32.3811 99.4016 32.3811ZM107.666 32V7.57447H112.898V22.0219H112.967L119.238 14.9887H125.44L118.233 23.1306L125.786 32H119.48L112.967 24.655H112.898V32H107.666ZM126.777 11.6974V6.81226H132.425V11.6974H126.777ZM126.985 32V14.9887H132.217V32H126.985ZM144.606 32.3811C139.824 32.3811 137.434 30.0598 137.434 25.4172V18.9038H134.212V14.9887H137.434V9.9997H142.665V14.9887H147.689V18.9038H142.665V25.2094C142.665 26.1794 142.885 26.907 143.324 27.3921C143.786 27.8771 144.513 28.1196 145.506 28.1196C145.807 28.1196 146.118 28.085 146.442 28.0157C146.788 27.9464 147.158 27.854 147.551 27.7385L148.313 31.5496C147.828 31.8037 147.25 32 146.58 32.1386C145.911 32.3003 145.252 32.3811 144.606 32.3811ZM151.884 38.2363L155.141 31.0646L148.142 14.9887H153.651L157.913 25.7983L162.313 14.9887H167.51L157.22 38.2363H151.884Z" fill="white"/>
</svg>
